<?xml version="1.0" standalone="no"?>
<!DOCTYPE svg PUBLIC "-//W3C//DTD SVG 20010904//EN"
 "http://www.w3.org/TR/2001/REC-SVG-20010904/DTD/svg10.dtd">
<svg version="1.0" xmlns="http://www.w3.org/2000/svg"
 width="16.000000pt" height="16.000000pt" viewBox="0 0 16.000000 16.000000"
 preserveAspectRatio="xMidYMid meet">
<metadata>
Created by potrace 1.11, written by Peter Selinger 2001-2013
</metadata>
<g transform="translate(0.000000,16.000000) scale(0.002667,-0.002667)"
fill="#000000" stroke="none">
<path d="M0 3000 l0 -3000 3000 0 3000 0 0 3000 0 3000 -3000 0 -3000 0 0
-3000z m3620 1785 l0 -714 -305 -497 c-168 -274 -307 -500 -310 -502 -3 -3 -5
542 -5 1211 l0 1217 310 0 310 0 0 -715z m-1250 640 l0 -45 -241 0 c-146 0
-248 -4 -260 -10 -22 -12 -24 -33 -8 -79 l11 -31 249 0 249 0 0 -45 0 -45
-295 0 -295 0 0 45 c0 33 4 45 15 45 12 0 11 6 -5 33 -37 60 -16 151 38 163
15 3 32 7 37 9 6 2 121 4 258 4 l247 1 0 -45z m-68 -335 c52 -15 78 -60 78
-136 0 -65 -22 -113 -62 -136 -33 -19 -453 -19 -486 0 -39 22 -62 71 -62 132
0 72 25 121 71 137 43 15 409 17 461 3z m-314 -397 l3 -43 -58 0 c-67 0 -83
-11 -83 -55 0 -17 5 -36 12 -43 13 -13 106 -16 124 -4 6 4 31 39 56 77 25 39
54 78 65 87 25 23 126 34 179 19 63 -17 87 -50 92 -126 7 -113 -38 -155 -165
-155 l-53 0 0 45 0 44 68 3 67 3 3 38 c5 55 -10 67 -79 67 l-59 0 -54 -84
c-30 -47 -64 -90 -76 -96 -33 -18 -120 -24 -166 -11 -61 16 -87 50 -92 120 -8
112 45 162 168 158 l45 -2 3 -42z m102 -316 l275 -43 3 -45 3 -45 -178 -24
c-98 -13 -184 -26 -191 -30 -7 -4 58 -16 145 -29 246 -34 223 -26 223 -76 0
-51 33 -41 -295 -90 -132 -20 -252 -38 -267 -41 -27 -5 -28 -4 -28 40 0 41 2
46 23 46 47 0 391 45 372 48 -11 3 -103 16 -205 31 l-185 26 -3 41 c-4 49 -25
41 221 75 92 13 167 26 167 29 0 4 -73 15 -162 24 -246 27 -228 22 -228 67 0
31 4 39 18 38 9 0 141 -19 292 -42z m2770 -413 c0 -3 -137 -230 -305 -503
-168 -274 -305 -503 -305 -510 0 -7 135 -232 300 -501 165 -269 303 -496 306
-503 3 -8 -134 -241 -305 -518 l-309 -504 -306 -3 c-188 -1 -306 1 -306 7 0 5
138 234 306 508 256 418 304 501 296 518 -6 11 -145 240 -310 508 l-300 489
68 111 c38 62 179 291 312 509 l243 397 308 1 c169 0 307 -3 307 -6z m-2490
-114 c0 -29 -4 -40 -15 -40 -12 0 -11 -6 5 -32 35 -57 21 -135 -27 -157 -13
-6 -69 -11 -123 -11 -95 0 -101 1 -130 28 -20 17 -38 52 -54 97 l-23 70 -67 0
c-72 0 -86 -9 -86 -56 0 -36 17 -47 75 -51 l50 -3 0 -40 0 -40 -62 2 c-34 1
-71 7 -83 13 -76 40 -81 193 -8 244 19 14 63 16 285 16 l263 0 0 -40z m0 -360
l0 -40 -390 0 -390 0 0 40 0 40 390 0 390 0 0 -40z m-492 -167 l3 -43 -85 0
c-73 0 -89 -3 -106 -20 -24 -24 -26 -57 -4 -88 13 -19 24 -22 89 -22 40 0 81
3 90 7 10 3 44 42 77 87 81 109 99 120 217 124 118 4 166 -9 198 -57 29 -42
32 -135 6 -188 -23 -50 -62 -63 -183 -63 l-100 0 0 45 0 45 100 0 c109 0 120
6 120 67 0 49 -13 57 -94 61 -109 6 -131 -5 -201 -101 -76 -104 -100 -117
-220 -117 -107 0 -151 17 -177 70 -38 75 -10 195 49 218 46 18 64 20 143 19
l75 -2 3 -42z m492 -513 l0 -40 -232 -1 c-128 -1 -244 -4 -258 -8 -21 -6 -25
-13 -24 -44 2 -68 -1 -67 270 -67 l244 0 0 -45 0 -45 -255 0 -255 0 -6 -24
c-3 -14 0 -37 8 -53 l13 -28 248 -3 247 -2 0 -45 0 -45 -295 0 -295 0 0 45 c0
33 4 45 15 45 12 0 11 6 -5 33 -26 42 -26 97 0 130 l21 26 -21 40 c-29 59 -26
106 9 142 l29 29 271 0 271 0 0 -40z m935 -465 c159 -258 295 -480 303 -492
l14 -23 -311 0 -311 0 0 502 c0 290 4 498 9 493 5 -6 138 -221 296 -480z
m-1587 -102 l3 -43 -50 0 -51 0 0 46 0 45 48 -3 47 -3 3 -42z m652 -3 l0 -40
-295 0 -295 0 0 40 0 40 295 0 295 0 0 -40z m-584 -165 c98 -41 186 -75 195
-75 9 0 96 32 193 70 98 39 182 70 187 70 6 0 9 -20 7 -47 l-3 -48 -172 -65
-173 -65 175 -3 175 -2 0 -45 0 -45 -385 0 -385 0 0 45 0 45 175 2 175 3 -175
70 -175 70 0 48 c0 26 2 47 4 47 2 0 84 -34 182 -75z"/>
<path d="M1862 4998 c-17 -17 -15 -74 4 -92 13 -13 46 -16 205 -16 112 0 198
4 210 10 22 12 27 78 7 98 -17 17 -409 17 -426 0z"/>
<path d="M2080 3804 c0 -3 9 -27 21 -54 22 -52 39 -60 123 -60 59 0 81 18 72
60 -11 56 -19 60 -122 60 -52 0 -94 -3 -94 -6z"/>
</g>
</svg>
