<?xml version="1.0" encoding="UTF-8" standalone="no"?>
<!DOCTYPE svg PUBLIC "-//W3C//DTD SVG 1.1//EN" "http://www.w3.org/Graphics/SVG/1.1/DTD/svg11.dtd">
<svg width="100%" height="100%" viewBox="0 0 702 702" version="1.1" xmlns="http://www.w3.org/2000/svg" xmlns:xlink="http://www.w3.org/1999/xlink" xml:space="preserve" xmlns:serif="http://www.serif.com/" style="fill-rule:evenodd;clip-rule:evenodd;stroke-linejoin:round;stroke-miterlimit:2;">
    <g transform="matrix(1,0,0,1,-149.006,-149.006)">
        <path d="M477.39,149.64C516.11,147.41 555.22,151.01 592.65,161.33C658.99,179.29 719.55,217.52 764.62,269.36C809.15,320.15 838.43,384.11 847.63,451.04C853.11,491.41 851.9,532.76 843.5,572.65C831.32,630.9 803.84,685.84 764.65,730.61C729.19,771.32 684.28,803.77 634.36,824.39C564.53,853.51 485.21,858.79 412.01,839.91C349.85,823.95 292.34,790.39 247.85,744.15C199.17,694.25 166.05,629.42 154.22,560.72C149.07,531.46 147.82,501.56 150.1,471.96C154.76,411.12 175.85,351.68 210.47,301.45C244.83,251.39 292.32,210.41 347,183.98C387.68,164.17 432.26,152.61 477.39,149.64Z" style="fill:rgb(199,200,200);fill-rule:nonzero;"/>
    </g>
    <g transform="matrix(1,0,0,1,-149.006,-149.006)">
        <path d="M484.9,251.87C490.04,244.86 499.54,241.31 507.99,243.49C517.83,245.57 525.42,255.01 525.39,265.07C525.49,323.42 525.28,381.79 525.5,440.14C532.92,432.66 540.34,425.17 547.86,417.78C556.89,409.3 572.87,410.79 580.28,420.69C587.11,429.04 586.66,442.32 579.02,450.02C564.28,464.74 549.59,479.51 534.81,494.18C536.87,497.08 539.6,499.38 542.07,501.92C555.04,514.93 568.07,527.88 581.02,540.91C589.2,549.3 588.81,564.25 580.2,572.2C572.17,580.49 557.6,580.77 549.34,572.69C541.34,564.8 533.4,556.86 525.52,548.86C525.26,553.25 525.82,557.78 524.57,562.07C523.03,567.84 519.1,572.95 513.82,575.78C507.01,579.65 498.16,579.55 491.45,575.5C484.64,571.59 480.29,563.87 480.41,556.03C480.39,459.34 480.41,362.65 480.4,265.95C480.27,260.93 481.85,255.88 484.9,251.87Z" style="fill:rgb(44,39,40);fill-rule:nonzero;"/>
    </g>
    <g transform="matrix(1,0,0,1,-149.006,-149.006)">
        <path d="M385.59,319.55C389.19,317.41 392.59,314.45 396.95,314.12C405.28,312.31 414.42,315.53 419.83,322.09C427.63,331.06 427.08,346.2 418.06,354.09C388.84,370.38 364.56,395.48 349.69,425.49C330.54,463.25 326.97,508.45 339.4,548.87C349.61,582.32 370.69,612.35 398.71,633.29C426.79,654.53 461.77,666.48 496.99,666.68C532.06,667.25 567.17,656.18 595.65,635.71C622.39,616.65 643.33,589.55 654.87,558.79C671,516.25 668.76,467.14 648.99,426.17C635.02,397.21 611.99,372.74 584.01,356.91C576.63,353.5 573.25,344.7 573.58,336.98C573.92,329.27 578.33,321.85 585.01,317.95C591.6,313.93 600.2,313.45 607.17,316.8C631.35,331.41 653.19,350.19 670.07,372.93C696.57,408.14 711.27,451.97 711.7,496C712.68,534.7 702.56,573.56 683.06,606.98C663.17,641.29 633.49,669.82 598.42,688.34C569.41,703.73 536.77,712.28 503.93,712.89C463.9,714.03 423.61,703.42 389.31,682.74C366.81,669.27 346.94,651.52 330.74,630.92C330.63,659.28 330.72,687.63 330.69,715.99C330.62,720.54 331.16,725.29 329.37,729.61C326.68,736.98 319.87,742.63 312.1,743.83C302.37,745.76 291.91,740.14 287.88,731.14C285.4,726.14 285.74,720.42 285.79,715.01C285.78,642.34 285.81,569.67 285.77,497.01C286.27,472.37 290.74,447.76 299.51,424.71C315.7,381.51 346.52,344.04 385.59,319.55Z" style="fill:rgb(44,39,40);fill-rule:nonzero;"/>
    </g>
</svg>
