<?xml version="1.0" encoding="UTF-8" ?>
<!DOCTYPE svg PUBLIC "-//W3C//DTD SVG 1.1//EN" "http://www.w3.org/Graphics/SVG/1.1/DTD/svg11.dtd">
<svg width="600pt" height="600pt" viewBox="0 0 600 600" version="1.1" xmlns="http://www.w3.org/2000/svg">
<path fill="#012b36" d=" M 0.00 0.00 L 600.00 0.00 L 600.00 600.00 L 0.00 600.00 L 0.00 0.00 Z" />
<path fill="#f5eedc" d=" M 299.83 50.54 C 320.65 50.54 341.47 50.54 362.29 50.55 C 362.33 97.83 362.24 145.11 362.33 192.40 C 341.36 226.20 320.73 260.21 299.84 294.06 C 299.82 212.89 299.84 131.72 299.83 50.54 Z" />
<path fill="#f5eedc" d=" M 176.96 64.02 C 176.60 59.90 179.02 55.35 183.15 54.18 C 185.37 53.61 187.69 53.56 189.97 53.53 C 205.77 53.56 221.57 53.53 237.37 53.54 C 237.37 56.35 237.37 59.17 237.36 61.98 C 222.26 61.98 207.16 61.99 192.06 61.97 C 189.91 61.92 187.82 62.41 185.76 62.93 C 184.06 66.83 185.70 70.96 187.81 74.32 C 204.33 74.29 220.85 74.28 237.36 74.33 C 237.37 77.12 237.37 79.91 237.38 82.71 C 217.48 82.81 197.59 82.71 177.69 82.76 C 177.67 79.95 177.67 77.15 177.66 74.35 C 178.87 74.33 180.09 74.31 181.30 74.30 C 179.07 71.30 176.82 67.94 176.96 64.02 Z" />
<path fill="#f5eedc" d=" M 189.21 90.28 C 200.47 89.88 211.75 90.20 223.02 90.11 C 227.61 90.33 233.35 90.63 235.85 95.17 C 238.70 99.24 238.14 104.43 237.92 109.11 C 237.26 114.57 232.70 119.37 227.00 119.32 C 216.35 119.85 205.67 119.39 195.01 119.56 C 190.15 119.46 184.49 119.96 180.65 116.36 C 176.14 111.65 176.41 104.46 177.59 98.52 C 178.91 93.26 183.96 90.20 189.21 90.28 Z" />
<path fill="#012b36" d=" M 185.55 100.86 C 186.73 98.46 189.74 98.67 192.00 98.54 C 202.32 98.55 212.64 98.55 222.96 98.54 C 225.16 98.68 228.06 98.42 229.36 100.62 C 230.91 103.57 230.17 107.14 229.02 110.11 C 226.72 110.69 224.37 111.17 221.99 111.11 C 212.31 111.08 202.63 111.08 192.95 111.11 C 190.58 111.18 188.26 110.68 185.99 110.09 C 184.89 107.19 184.23 103.79 185.55 100.86 Z" />
<path fill="#f5eedc" d=" M 212.57 127.53 C 217.84 125.83 223.60 126.13 229.03 126.89 C 235.12 127.73 238.51 134.32 238.09 140.00 C 238.53 145.12 236.74 151.32 231.63 153.49 C 226.60 155.25 221.18 154.74 215.94 154.81 C 215.92 152.03 215.92 149.26 215.91 146.49 C 220.15 146.23 224.67 147.18 228.70 145.56 C 231.66 142.62 231.29 134.87 225.99 134.82 C 222.65 134.76 218.80 134.01 215.82 135.84 C 210.57 141.12 208.86 149.53 202.16 153.44 C 196.68 155.29 190.64 154.96 185.02 153.91 C 180.87 152.99 178.24 149.10 177.29 145.19 C 176.41 139.68 176.63 133.14 181.10 129.14 C 186.12 125.37 192.84 126.77 198.69 126.47 C 198.70 129.25 198.70 132.03 198.69 134.81 C 194.38 135.22 189.24 133.57 185.57 136.49 C 183.97 139.46 183.86 145.24 188.04 146.05 C 191.47 146.46 195.29 146.87 198.52 145.47 C 204.04 140.22 205.61 131.40 212.57 127.53 Z" />
<path fill="#f5eedc" d=" M 177.67 157.75 C 197.57 160.75 217.47 163.78 237.36 166.80 C 237.37 169.69 237.37 172.57 237.37 175.46 C 223.56 177.43 209.71 179.11 195.93 181.30 C 209.77 183.08 223.55 185.30 237.37 187.23 C 237.37 190.11 237.37 193.00 237.37 195.89 C 217.48 198.94 197.57 201.91 177.69 204.97 C 177.67 202.19 177.67 199.42 177.67 196.64 C 192.19 194.93 206.70 193.14 221.24 191.54 C 206.75 189.26 192.19 187.39 177.68 185.28 C 177.67 182.58 177.67 179.88 177.68 177.19 C 192.15 175.05 206.65 173.14 221.09 170.86 C 206.62 169.21 192.16 167.50 177.69 165.84 C 177.67 163.14 177.67 160.44 177.67 157.75 Z" />
<path fill="#f5eedc" d=" M 424.34 203.54 C 445.00 203.58 465.66 203.54 486.32 203.56 C 465.70 237.37 444.75 270.98 424.31 304.90 C 444.81 338.76 465.67 372.40 486.33 406.17 C 465.65 439.94 444.79 473.61 424.27 507.48 C 403.60 507.46 382.94 507.51 362.28 507.46 C 382.56 474.36 402.88 441.28 423.18 408.19 C 423.89 407.08 424.45 405.71 423.42 404.59 C 403.10 371.33 382.65 338.13 362.29 304.89 C 382.90 271.06 403.81 237.42 424.34 203.54 Z" />
<path fill="#f5eedc" d=" M 183.14 212.14 C 185.89 210.76 189.05 210.76 192.05 210.67 C 207.16 210.68 222.26 210.67 237.37 210.68 C 237.37 213.48 237.37 216.29 237.37 219.10 C 236.48 219.07 234.71 219.03 233.82 219.00 C 235.93 221.97 238.21 225.18 238.07 229.01 C 238.53 233.37 235.62 238.14 231.10 238.81 C 225.43 239.52 219.67 239.26 213.97 239.03 C 209.72 238.99 206.08 235.95 204.59 232.09 C 202.99 227.79 201.64 223.40 200.09 219.09 C 195.40 219.07 190.64 218.76 186.05 219.97 C 184.72 222.83 183.68 227.12 186.68 229.31 C 190.04 230.99 193.98 230.14 197.60 230.34 C 197.60 233.07 197.60 235.81 197.59 238.55 C 192.11 238.32 185.81 239.45 181.17 235.83 C 176.78 231.91 176.34 225.47 177.31 220.03 C 178.20 216.84 179.99 213.56 183.14 212.14 Z" />
<path fill="#012b36" d=" M 207.90 219.06 C 214.38 219.07 220.86 219.11 227.34 219.03 C 229.45 222.29 231.00 226.38 229.13 230.12 C 223.84 230.96 218.23 231.42 213.03 229.94 C 209.64 227.49 209.51 222.66 207.90 219.06 Z" />
<path fill="#f5eedc" d=" M 158.92 246.92 C 185.07 246.92 211.22 246.92 237.37 246.93 C 237.37 249.73 237.37 252.53 237.37 255.33 C 211.22 255.34 185.07 255.34 158.93 255.34 C 158.92 252.53 158.92 249.73 158.92 246.92 Z" />
<path fill="#f5eedc" d=" M 167.96 264.08 C 174.37 262.85 180.94 263.54 187.43 263.39 C 187.42 266.26 187.42 269.13 187.42 272.00 C 181.23 272.20 174.93 271.41 168.84 272.90 C 167.05 276.10 166.40 280.41 168.55 283.60 C 171.18 285.76 174.86 285.13 178.02 285.29 C 181.27 285.13 184.92 285.72 187.80 283.83 C 194.33 277.96 197.06 268.26 205.29 264.21 C 211.09 262.77 217.13 263.11 223.05 263.18 C 227.62 263.42 233.20 263.94 235.67 268.42 C 238.69 272.70 238.17 278.15 237.94 283.10 C 237.27 287.65 234.33 292.36 229.54 293.32 C 222.34 294.82 214.92 293.84 207.62 294.12 C 207.62 291.24 207.62 288.36 207.62 285.48 C 214.05 285.19 220.58 286.07 226.95 284.95 C 231.50 283.08 230.29 276.86 228.88 273.19 C 224.10 271.50 218.98 272.07 214.00 272.03 C 210.96 272.16 207.40 272.63 205.58 275.42 C 200.62 281.23 197.55 289.03 190.59 292.83 C 184.92 294.53 178.90 294.16 173.05 294.04 C 168.93 293.79 164.02 292.94 161.79 289.00 C 158.87 284.94 159.09 279.76 159.35 275.02 C 159.85 270.18 162.93 265.16 167.96 264.08 Z" />
<path fill="#f5eedc" d=" M 182.78 315.79 C 185.12 315.06 187.59 315.00 190.02 314.98 C 205.80 315.02 221.59 314.99 237.37 315.00 C 237.37 317.80 237.37 320.60 237.37 323.41 C 224.92 323.40 212.46 323.41 200.00 323.41 C 195.32 323.43 190.61 323.16 185.97 323.94 C 183.92 327.69 185.77 331.78 187.81 335.08 C 204.33 335.05 220.84 335.08 237.36 335.07 C 237.37 337.89 237.37 340.70 237.37 343.52 C 224.93 343.54 212.50 343.52 200.06 343.53 C 195.36 343.56 190.64 343.28 185.98 344.04 C 183.91 347.79 185.77 351.91 187.82 355.21 C 204.33 355.16 220.84 355.21 237.36 355.19 C 237.37 358.00 237.37 360.81 237.38 363.63 C 217.47 363.65 197.57 363.66 177.66 363.62 C 177.67 360.80 177.67 357.99 177.68 355.17 C 178.58 355.19 180.39 355.21 181.29 355.23 C 178.78 351.98 176.58 348.20 176.90 343.93 C 176.65 340.56 179.50 338.28 181.68 336.19 C 179.25 332.93 176.96 329.23 176.97 325.02 C 176.67 321.17 178.95 316.94 182.78 315.79 Z" />
<path fill="#f5eedc" d=" M 299.89 315.83 C 320.70 349.49 341.32 383.26 362.00 416.99 C 341.28 416.99 320.56 416.99 299.83 416.99 C 299.87 383.27 299.76 349.55 299.89 315.83 Z" />
<path fill="#f5eedc" d=" M 162.20 371.44 C 165.34 371.43 168.48 371.43 171.63 371.44 C 171.63 374.40 171.63 377.36 171.61 380.32 C 168.47 380.31 165.33 380.31 162.19 380.30 C 162.19 377.34 162.19 374.39 162.20 371.44 Z" />
<path fill="#f5eedc" d=" M 177.68 371.68 C 197.58 371.67 217.47 371.68 237.37 371.68 C 237.37 374.47 237.37 377.27 237.37 380.07 C 217.47 380.08 197.57 380.08 177.68 380.07 C 177.67 377.27 177.67 374.48 177.68 371.68 Z" />
<path fill="#f5eedc" d=" M 160.00 384.83 C 172.69 390.10 185.35 395.44 198.03 400.72 C 211.14 395.57 224.25 390.40 237.36 385.26 C 237.37 388.51 237.37 391.75 237.37 395.00 C 224.83 399.86 212.20 404.47 199.71 409.45 C 212.26 409.47 224.81 409.44 237.36 409.46 C 237.37 412.41 237.37 415.37 237.37 418.32 C 211.58 418.33 185.79 418.32 160.00 418.32 C 160.00 415.36 160.00 412.41 160.00 409.46 C 172.40 409.43 184.80 409.49 197.20 409.42 C 184.83 404.28 172.38 399.33 160.00 394.23 C 160.00 391.09 160.00 387.96 160.00 384.83 Z" />
</svg>
