<?xml version="1.0" encoding="UTF-8" standalone="no"?>
<!DOCTYPE svg PUBLIC "-//W3C//DTD SVG 1.1//EN" "http://www.w3.org/Graphics/SVG/1.1/DTD/svg11.dtd">
<svg width="100%" height="100%" viewBox="0 0 600 600" version="1.1" xmlns="http://www.w3.org/2000/svg" xmlns:xlink="http://www.w3.org/1999/xlink" xml:space="preserve" xmlns:serif="http://www.serif.com/" style="fill-rule:evenodd;clip-rule:evenodd;stroke-linejoin:round;stroke-miterlimit:2;">
    <rect x="0" y="0" width="600" height="600" style="fill:rgb(1,43,54);fill-rule:nonzero;"/>
    <g transform="matrix(1,0,0,1,0.520974,-4.887637)">
        <path d="M176.96,64.02C176.6,59.9 179.02,55.35 183.15,54.18C185.37,53.61 187.69,53.56 189.97,53.53C205.77,53.56 221.57,53.53 237.37,53.54C237.37,56.35 237.37,59.17 237.36,61.98C222.26,61.98 207.16,61.99 192.06,61.97C189.91,61.92 187.82,62.41 185.76,62.93C184.06,66.83 185.7,70.96 187.81,74.32C204.33,74.29 220.85,74.28 237.36,74.33C237.37,77.12 237.37,79.91 237.38,82.71C217.48,82.81 197.59,82.71 177.69,82.76C177.67,79.95 177.67,77.15 177.66,74.35C178.87,74.33 180.09,74.31 181.3,74.3C179.07,71.3 176.82,67.94 176.96,64.02Z" style="fill:rgb(245,238,220);fill-rule:nonzero;"/>
    </g>
    <g transform="matrix(1,0,0,1,0.520974,-4.887637)">
        <path d="M189.21,90.28C200.47,89.88 211.75,90.2 223.02,90.11C227.61,90.33 233.35,90.63 235.85,95.17C238.7,99.24 238.14,104.43 237.92,109.11C237.26,114.57 232.7,119.37 227,119.32C216.35,119.85 205.67,119.39 195.01,119.56C190.15,119.46 184.49,119.96 180.65,116.36C176.14,111.65 176.41,104.46 177.59,98.52C178.91,93.26 183.96,90.2 189.21,90.28Z" style="fill:rgb(245,238,220);fill-rule:nonzero;"/>
    </g>
    <g transform="matrix(1,0,0,1,0,-4.887637)">
        <path d="M185.55,100.86C186.73,98.46 189.74,98.67 192,98.54C202.32,98.55 212.64,98.55 222.96,98.54C225.16,98.68 228.06,98.42 229.36,100.62C230.91,103.57 230.17,107.14 229.02,110.11C226.72,110.69 224.37,111.17 221.99,111.11C212.31,111.08 202.63,111.08 192.95,111.11C190.58,111.18 188.26,110.68 185.99,110.09C184.89,107.19 184.23,103.79 185.55,100.86Z" style="fill:rgb(1,43,54);fill-rule:nonzero;"/>
    </g>
    <g transform="matrix(1,0,0,1,0.520974,-4.887637)">
        <path d="M212.57,127.53C217.84,125.83 223.6,126.13 229.03,126.89C235.12,127.73 238.51,134.32 238.09,140C238.53,145.12 236.74,151.32 231.63,153.49C226.6,155.25 221.18,154.74 215.94,154.81C215.92,152.03 215.92,149.26 215.91,146.49C220.15,146.23 224.67,147.18 228.7,145.56C231.66,142.62 231.29,134.87 225.99,134.82C222.65,134.76 218.8,134.01 215.82,135.84C210.57,141.12 208.86,149.53 202.16,153.44C196.68,155.29 190.64,154.96 185.02,153.91C180.87,152.99 178.24,149.1 177.29,145.19C176.41,139.68 176.63,133.14 181.1,129.14C186.12,125.37 192.84,126.77 198.69,126.47C198.7,129.25 198.7,132.03 198.69,134.81C194.38,135.22 189.24,133.57 185.57,136.49C183.97,139.46 183.86,145.24 188.04,146.05C191.47,146.46 195.29,146.87 198.52,145.47C204.04,140.22 205.61,131.4 212.57,127.53Z" style="fill:rgb(245,238,220);fill-rule:nonzero;"/>
    </g>
    <g transform="matrix(1,0,0,1,0.520974,-4.887637)">
        <path d="M177.67,157.75C197.57,160.75 217.47,163.78 237.36,166.8C237.37,169.69 237.37,172.57 237.37,175.46C223.56,177.43 209.71,179.11 195.93,181.3C209.77,183.08 223.55,185.3 237.37,187.23L237.37,195.89C217.48,198.94 197.57,201.91 177.69,204.97C177.67,202.19 177.67,199.42 177.67,196.64C192.19,194.93 206.7,193.14 221.24,191.54C206.75,189.26 192.19,187.39 177.68,185.28C177.67,182.58 177.67,179.88 177.68,177.19C192.15,175.05 206.65,173.14 221.09,170.86C206.62,169.21 192.16,167.5 177.69,165.84C177.67,163.14 177.67,160.44 177.67,157.75Z" style="fill:rgb(245,238,220);fill-rule:nonzero;"/>
    </g>
    <g transform="matrix(1,0,0,1,0.520974,-4.887637)">
        <path d="M183.14,212.14C185.89,210.76 189.05,210.76 192.05,210.67C207.16,210.68 222.26,210.67 237.37,210.68L237.37,219.1C236.48,219.07 234.71,219.03 233.82,219C235.93,221.97 238.21,225.18 238.07,229.01C238.53,233.37 235.62,238.14 231.1,238.81C225.43,239.52 219.67,239.26 213.97,239.03C209.72,238.99 206.08,235.95 204.59,232.09C202.99,227.79 201.64,223.4 200.09,219.09C195.4,219.07 190.64,218.76 186.05,219.97C184.72,222.83 183.68,227.12 186.68,229.31C190.04,230.99 193.98,230.14 197.6,230.34C197.6,233.07 197.6,235.81 197.59,238.55C192.11,238.32 185.81,239.45 181.17,235.83C176.78,231.91 176.34,225.47 177.31,220.03C178.2,216.84 179.99,213.56 183.14,212.14Z" style="fill:rgb(245,238,220);fill-rule:nonzero;"/>
    </g>
    <g transform="matrix(1,0,0,1,0,-4.887637)">
        <path d="M207.9,219.06C214.38,219.07 220.86,219.11 227.34,219.03C229.45,222.29 231,226.38 229.13,230.12C223.84,230.96 218.23,231.42 213.03,229.94C209.64,227.49 209.51,222.66 207.9,219.06Z" style="fill:rgb(1,43,54);fill-rule:nonzero;"/>
    </g>
    <g transform="matrix(1,0,0,1,0.520974,-4.887637)">
        <path d="M158.92,246.92C185.07,246.92 211.22,246.92 237.37,246.93L237.37,255.33C211.22,255.34 185.07,255.34 158.93,255.34C158.92,252.53 158.92,249.73 158.92,246.92Z" style="fill:rgb(245,238,220);fill-rule:nonzero;"/>
    </g>
    <g transform="matrix(1,0,0,1,0.520974,-4.887637)">
        <path d="M167.96,264.08C174.37,262.85 180.94,263.54 187.43,263.39C187.42,266.26 187.42,269.13 187.42,272C181.23,272.2 174.93,271.41 168.84,272.9C167.05,276.1 166.4,280.41 168.55,283.6C171.18,285.76 174.86,285.13 178.02,285.29C181.27,285.13 184.92,285.72 187.8,283.83C194.33,277.96 197.06,268.26 205.29,264.21C211.09,262.77 217.13,263.11 223.05,263.18C227.62,263.42 233.2,263.94 235.67,268.42C238.69,272.7 238.17,278.15 237.94,283.1C237.27,287.65 234.33,292.36 229.54,293.32C222.34,294.82 214.92,293.84 207.62,294.12L207.62,285.48C214.05,285.19 220.58,286.07 226.95,284.95C231.5,283.08 230.29,276.86 228.88,273.19C224.1,271.5 218.98,272.07 214,272.03C210.96,272.16 207.4,272.63 205.58,275.42C200.62,281.23 197.55,289.03 190.59,292.83C184.92,294.53 178.9,294.16 173.05,294.04C168.93,293.79 164.02,292.94 161.79,289C158.87,284.94 159.09,279.76 159.35,275.02C159.85,270.18 162.93,265.16 167.96,264.08Z" style="fill:rgb(245,238,220);fill-rule:nonzero;"/>
    </g>
    <g transform="matrix(1,0,0,1,0.52,-4.887637)">
        <path d="M182.78,315.79C185.12,315.06 187.59,315 190.02,314.98C205.8,315.02 221.59,314.99 237.37,315L237.37,323.41C224.92,323.4 212.46,323.41 200,323.41C195.32,323.43 190.61,323.16 185.97,323.94C183.92,327.69 185.77,331.78 187.81,335.08C204.33,335.05 220.84,335.08 237.36,335.07C237.37,337.89 237.37,340.7 237.37,343.52C224.93,343.54 212.5,343.52 200.06,343.53C195.36,343.56 190.64,343.28 185.98,344.04C183.91,347.79 185.77,351.91 187.82,355.21C204.33,355.16 220.84,355.21 237.36,355.19C237.37,358 237.37,360.81 237.38,363.63C217.47,363.65 197.57,363.66 177.66,363.62C177.67,360.8 177.67,357.99 177.68,355.17C178.58,355.19 180.39,355.21 181.29,355.23C178.78,351.98 176.58,348.2 176.9,343.93C176.65,340.56 179.5,338.28 181.68,336.19C179.25,332.93 176.96,329.23 176.97,325.02C176.67,321.17 178.95,316.94 182.78,315.79Z" style="fill:rgb(245,238,220);fill-rule:nonzero;"/>
    </g>
    <g transform="matrix(1.063887,0,0,1.034368,-18.985959,-16.684528)">
        <path d="M299.831,315.83L358.166,415.788L299.831,415.83L299.831,315.83Z" style="fill:rgb(245,238,220);fill-rule:nonzero;"/>
    </g>
    <g transform="matrix(1.063887,0,0,1.034368,105.138232,-26.684528)">
        <path d="M305.47,425.498L241.495,315.83L305.446,206.205L363.833,206.162L299.831,315.83L363.833,425.498L299.831,535.165L241.495,535.165L305.47,425.498Z" style="fill:rgb(245,238,220);"/>
    </g>
    <g transform="matrix(1.063887,0,0,-1.034368,-18.985959,616.684528)">
        <path d="M299.831,315.83L358.166,415.788L358.166,549.168L299.831,549.168L299.831,315.83Z" style="fill:rgb(245,237,220);fill-rule:nonzero;"/>
    </g>
    <g transform="matrix(1,0,0,1,0.52,-4.887637)">
        <path d="M162.2,371.44C165.34,371.43 168.48,371.43 171.63,371.44C171.63,374.4 171.63,377.36 171.61,380.32C168.47,380.31 165.33,380.31 162.19,380.3C162.19,377.34 162.19,374.39 162.2,371.44Z" style="fill:rgb(245,238,220);fill-rule:nonzero;"/>
    </g>
    <g transform="matrix(1,0,0,1,0.52,-4.887637)">
        <path d="M177.68,371.68C197.58,371.67 217.47,371.68 237.37,371.68L237.37,380.07C217.47,380.08 197.57,380.08 177.68,380.07C177.67,377.27 177.67,374.48 177.68,371.68Z" style="fill:rgb(245,238,220);fill-rule:nonzero;"/>
    </g>
    <g transform="matrix(1,0,0,1,0.52,-4.887637)">
        <path d="M160,384.83C172.69,390.1 185.35,395.44 198.03,400.72C211.14,395.57 224.25,390.4 237.36,385.26C237.37,388.51 237.37,391.75 237.37,395C224.83,399.86 212.2,404.47 199.71,409.45C212.26,409.47 224.81,409.44 237.36,409.46C237.37,412.41 237.37,415.37 237.37,418.32C211.58,418.33 185.79,418.32 160,418.32L160,409.46C172.4,409.43 184.8,409.49 197.2,409.42C184.83,404.28 172.38,399.33 160,394.23L160,384.83Z" style="fill:rgb(245,238,220);fill-rule:nonzero;"/>
    </g>
</svg>
